<svg width="40" height="40" viewBox="0 0 40 40" fill="none" xmlns="http://www.w3.org/2000/svg">
<g clip-path="url(#clip0)">
<path d="M22.2096 20.0008L39.5421 2.66817C40.1523 2.05794 40.1523 1.06856 39.5421 0.458407C38.9319 -0.151748 37.9425 -0.151826 37.3324 0.458407L19.9997 17.791L2.66719 0.458407C2.05696 -0.151826 1.06759 -0.151826 0.457431 0.458407C-0.152724 1.06864 -0.152802 2.05801 0.457431 2.66817L17.79 20.0007L0.457431 37.3333C-0.152802 37.9436 -0.152802 38.9329 0.457431 39.5431C0.762508 39.8482 1.16243 40.0007 1.56235 40.0007C1.96227 40.0007 2.36211 39.8482 2.66727 39.5431L19.9997 22.2106L37.3323 39.5431C37.6374 39.8482 38.0373 40.0007 38.4372 40.0007C38.8371 40.0007 39.237 39.8482 39.5421 39.5431C40.1523 38.9329 40.1523 37.9435 39.5421 37.3333L22.2096 20.0008Z" fill="white"/>
</g>
<defs>
<clipPath id="clip0">
<rect width="40" height="40" fill="white"/>
</clipPath>
</defs>
</svg>
